REM DIRINDEX 1\2\3,1\2\4,1\2\5,1\2\6
REM DIRNAME cjc157,folder01,folder02,folder03,folder04,folder05
TITLE ""
FILE "080 080.mp3" MP3
  TRACK 01 AUDIO
    TITLE "0:"
    INDEX 01 00:00:00
  TRACK 02 AUDIO
    TITLE "3:cjc157_3010"
    INDEX 01 00:00:11
  TRACK 03 AUDIO
    TITLE "0:"
    INDEX 01 00:01:34
  TRACK 04 AUDIO
    TITLE "4:cjc157_3011"
    INDEX 01 00:02:06
  TRACK 05 AUDIO
    TITLE "0:"
    INDEX 01 00:03:25
  TRACK 06 AUDIO
    TITLE "5:cjc157_3012"
    INDEX 01 00:03:68
  TRACK 07 AUDIO
    TITLE "0:"
    INDEX 01 00:05:67
  TRACK 08 AUDIO
    TITLE "5:cjc157_3013"
    INDEX 01 00:06:37
  TRACK 09 AUDIO
    TITLE "0:"
    INDEX 01 00:09:71
  TRACK 10 AUDIO
    TITLE "3:cjc157_3014"
    INDEX 01 00:10:43
  TRACK 11 AUDIO
    TITLE "0:"
    INDEX 01 00:11:74
  TRACK 12 AUDIO
    TITLE "4:cjc157_3015"
    INDEX 01 00:12:48
  TRACK 13 AUDIO
    TITLE "0:"
    INDEX 01 00:13:57
  TRACK 14 AUDIO
    TITLE "5:cjc157_3016"
    INDEX 01 00:14:27
  TRACK 15 AUDIO
    TITLE "0:"
    INDEX 01 00:16:02
  TRACK 16 AUDIO
    TITLE "5:cjc157_3017"
    INDEX 01 00:16:48
  TRACK 17 AUDIO
    TITLE "0:"
    INDEX 01 00:18:27
  TRACK 18 AUDIO
    TITLE "5:cjc157_3018"
    INDEX 01 00:18:74
  TRACK 19 AUDIO
    TITLE "0:"
    INDEX 01 00:21:74
  TRACK 20 AUDIO
    TITLE "3:cjc157_3019"
    INDEX 01 00:22:44
  TRACK 21 AUDIO
    TITLE "0:"
    INDEX 01 00:23:65
  TRACK 22 AUDIO
    TITLE "4:cjc157_3020"
    INDEX 01 00:24:35
  TRACK 23 AUDIO
    TITLE "0:"
    INDEX 01 00:25:56
  TRACK 24 AUDIO
    TITLE "5:cjc157_3021"
    INDEX 01 00:26:26
  TRACK 25 AUDIO
    TITLE "0:"
    INDEX 01 00:28:13
  TRACK 26 AUDIO
    TITLE "5:cjc157_3022"
    INDEX 01 00:28:60
  TRACK 27 AUDIO
    TITLE "0:"
    INDEX 01 00:30:36
  TRACK 28 AUDIO
    TITLE "3:cjc157_3023"
    INDEX 01 00:31:06
  TRACK 29 AUDIO
    TITLE "0:"
    INDEX 01 00:32:17
  TRACK 30 AUDIO
    TITLE "4:cjc157_3024"
    INDEX 01 00:32:64
  TRACK 31 AUDIO
    TITLE "0:"
    INDEX 01 00:33:71
  TRACK 32 AUDIO
    TITLE "5:cjc157_3025"
    INDEX 01 00:34:43
  TRACK 33 AUDIO
    TITLE "0:"
    INDEX 01 00:38:47
  TRACK 34 AUDIO
    TITLE "5:cjc157_3026"
    INDEX 01 00:39:25
  TRACK 35 AUDIO
    TITLE "0:"
    INDEX 01 00:42:23
  TRACK 36 AUDIO
    TITLE "5:cjc157_3027"
    INDEX 01 00:42:66
  TRACK 37 AUDIO
    TITLE "0:"
    INDEX 01 00:44:44
  TRACK 38 AUDIO
    TITLE "5:cjc157_3028"
    INDEX 01 00:45:18
  TRACK 39 AUDIO
    TITLE "0:"
    INDEX 01 00:47:54
  TRACK 40 AUDIO
    TITLE "3:cjc157_3029"
    INDEX 01 00:48:30
  TRACK 41 AUDIO
    TITLE "0:"
    INDEX 01 00:49:35
  TRACK 42 AUDIO
    TITLE "4:cjc157_3030"
    INDEX 01 00:50:03
  TRACK 43 AUDIO
    TITLE "0:"
    INDEX 01 00:51:15
  TRACK 44 AUDIO
    TITLE "5:cjc157_3031"
    INDEX 01 00:51:60
  TRACK 45 AUDIO
    TITLE "0:"
    INDEX 01 00:54:60
  TRACK 46 AUDIO
    TITLE "5:cjc157_3032"
    INDEX 01 00:55:34
  TRACK 47 AUDIO
    TITLE "0:"
    INDEX 01 00:58:01
  TRACK 48 AUDIO
    TITLE "3:cjc157_3033"
    INDEX 01 00:58:46
  TRACK 49 AUDIO
    TITLE "0:"
    INDEX 01 00:59:43
  TRACK 50 AUDIO
    TITLE "4:cjc157_3034"
    INDEX 01 01:00:13
  TRACK 51 AUDIO
    TITLE "0:"
    INDEX 01 01:01:19
  TRACK 52 AUDIO
    TITLE "5:cjc157_3035"
    INDEX 01 01:01:74
  TRACK 53 AUDIO
    TITLE "0:"
    INDEX 01 01:04:68
  TRACK 54 AUDIO
    TITLE "5:cjc157_3036"
    INDEX 01 01:05:34
  TRACK 55 AUDIO
    TITLE "0:"
    INDEX 01 01:07:51
  TRACK 56 AUDIO
    TITLE "3:cjc157_3037"
    INDEX 01 01:08:23
  TRACK 57 AUDIO
    TITLE "0:"
    INDEX 01 01:09:38
  TRACK 58 AUDIO
    TITLE "4:cjc157_3038"
    INDEX 01 01:10:08
  TRACK 59 AUDIO
    TITLE "0:"
    INDEX 01 01:11:21
  TRACK 60 AUDIO
    TITLE "5:cjc157_3039"
    INDEX 01 01:11:68
  TRACK 61 AUDIO
    TITLE "0:"
    INDEX 01 01:14:21
  TRACK 62 AUDIO
    TITLE "3:cjc157_3040"
    INDEX 01 01:14:72
  TRACK 63 AUDIO
    TITLE "0:"
    INDEX 01 01:15:60
  TRACK 64 AUDIO
    TITLE "4:cjc157_3041"
    INDEX 01 01:16:34
  TRACK 65 AUDIO
    TITLE "0:"
    INDEX 01 01:17:41
  TRACK 66 AUDIO
    TITLE "5:cjc157_3042"
    INDEX 01 01:18:17
  TRACK 67 AUDIO
    TITLE "0:"
    INDEX 01 01:20:14
  TRACK 68 AUDIO
    TITLE "3:cjc157_3043"
    INDEX 01 01:20:63
  TRACK 69 AUDIO
    TITLE "0:"
    INDEX 01 01:22:03
  TRACK 70 AUDIO
    TITLE "4:cjc157_3044"
    INDEX 01 01:22:52
  TRACK 71 AUDIO
    TITLE "0:"
    INDEX 01 01:23:62
  TRACK 72 AUDIO
    TITLE "5:cjc157_3045"
    INDEX 01 01:24:36
  TRACK 73 AUDIO
    TITLE "0:"
    INDEX 01 01:26:23
  TRACK 74 AUDIO
    TITLE "5:cjc157_3046"
    INDEX 01 01:26:70
  TRACK 75 AUDIO
    TITLE "0:"
    INDEX 01 01:28:06
  TRACK 76 AUDIO
    TITLE "3:cjc157_3047"
    INDEX 01 01:28:53
  TRACK 77 AUDIO
    TITLE "0:"
    INDEX 01 01:29:45
  TRACK 78 AUDIO
    TITLE "4:cjc157_3048"
    INDEX 01 01:30:15
  TRACK 79 AUDIO
    TITLE "0:"
    INDEX 01 01:31:20
  TRACK 80 AUDIO
    TITLE "5:cjc157_3049"
    INDEX 01 01:31:67
  TRACK 81 AUDIO
    TITLE "0:"
    INDEX 01 01:34:54
